<svg width="26" height="32" fill="none" xmlns="http://www.w3.org/2000/svg"><path d="M8.25 4.917H5.083a3.167 3.167 0 0 0-3.166 3.166v19a3.167 3.167 0 0 0 3.166 3.167h15.834a3.166 3.166 0 0 0 3.166-3.167v-19a3.167 3.167 0 0 0-3.166-3.166H17.75m-9.5 0a3.167 3.167 0 0 0 3.167 3.166h3.166a3.167 3.167 0 0 0 3.167-3.166m-9.5 0a3.167 3.167 0 0 1 3.167-3.167h3.166a3.167 3.167 0 0 1 3.167 3.167m-9.5 14.25 3.167 3.166L17.75 16" stroke="#fff" stroke-width="2" stroke-linecap="round" stroke-linejoin="round"/></svg>