<svg width="38" height="38" fill="none" xmlns="http://www.w3.org/2000/svg"><path d="M21.652 6.835c-.674-2.78-4.63-2.78-5.304 0a2.729 2.729 0 0 1-4.072 1.686c-2.445-1.488-5.241 1.31-3.753 3.753a2.73 2.73 0 0 1-1.688 4.074c-2.78.674-2.78 4.63 0 5.304a2.73 2.73 0 0 1 1.686 4.072c-1.488 2.445 1.31 5.241 3.753 3.753a2.73 2.73 0 0 1 4.074 1.688c.674 2.78 4.63 2.78 5.304 0a2.73 2.73 0 0 1 4.072-1.686c2.445 1.488 5.241-1.31 3.753-3.753a2.73 2.73 0 0 1 1.688-4.074c2.78-.674 2.78-4.63 0-5.304a2.73 2.73 0 0 1-1.686-4.072c1.488-2.445-1.31-5.241-3.753-3.753a2.73 2.73 0 0 1-4.074-1.688Z" stroke="#fff" stroke-width="2" stroke-linecap="round" stroke-linejoin="round"/><path d="M22.359 22.359a4.75 4.75 0 1 0-6.718-6.718 4.75 4.75 0 0 0 6.718 6.718Z" stroke="#fff" stroke-width="2" stroke-linecap="round" stroke-linejoin="round"/></svg>