<svg width="582" height="201" fill="none" xmlns="http://www.w3.org/2000/svg"><path clip-rule="evenodd" d="M113.193-530.433c70.261-55.548 192.981-38.569 296.549-52.824C515.991-597.881 618.29-696.9 726.839-614.895c125.11 94.517 6.28 256.43 120.16 361.972 144.815 134.212 449.221 73.496 520.051 231.364 63.42 141.345-226.39 98.711-357.07 131.9-65.153 16.545-144.052-.29-211.623 12.531-75.34 14.296-121.3 65.646-203.828 66.296-148.255 1.169-314.518 46.577-456.58-61.09C4.043 26.592 6.051-135.529 1.357-260.39c-4.163-110.725 32.89-207.628 111.836-270.043Z" stroke="#581C87"/><path clip-rule="evenodd" d="M149.151-580.757c70.261-55.548 192.981-38.569 296.548-52.824 106.249-14.624 208.548-113.643 317.098-31.638 125.109 94.517 6.279 256.43 120.16 361.972C1027.77-169.035 1332.18-229.75 1403.01-71.882c63.41 141.344-226.4 98.71-357.08 131.899-65.145 16.546-144.044-.29-211.615 12.532-75.34 14.295-121.3 65.645-203.829 66.296-148.254 1.168-314.518 46.576-456.579-61.091C40.001-23.732 42.008-185.852 37.314-310.714c-4.162-110.725 32.89-207.628 111.837-270.043Z" stroke="#581C87"/><path clip-rule="evenodd" d="M122.183-543.014c70.26-55.548 192.98-38.569 296.548-52.824 106.249-14.624 208.548-113.643 317.097-31.638 125.11 94.517 6.28 256.43 120.16 361.972C1000.8-131.292 1305.21-192.007 1376.04-34.139c63.42 141.344-226.39 98.71-357.07 131.899-65.153 16.546-144.052-.29-211.623 12.531-75.34 14.296-121.3 65.646-203.829 66.297-148.255 1.168-314.518 46.576-456.58-61.091C13.033 14.011 15.04-148.11 10.346-272.971c-4.162-110.725 32.89-207.628 111.837-270.043Z" stroke="#581C87"/><path clip-rule="evenodd" d="M158.14-593.338c70.261-55.548 192.981-38.569 296.549-52.823 106.249-14.624 208.548-113.644 317.097-31.638 125.11 94.516 6.28 256.429 120.16 361.971C1036.76-181.616 1341.17-242.331 1412-84.463c63.41 141.344-226.4 98.71-357.08 131.899-65.146 16.546-144.045-.29-211.616 12.532-75.339 14.295-121.3 65.645-203.828 66.296-148.255 1.168-314.518 46.576-456.58-61.091C48.99-36.313 50.998-198.433 46.304-323.295 42.14-434.02 79.194-530.923 158.14-593.338Z" stroke="#581C87"/><path clip-rule="evenodd" d="M131.172-555.595c70.261-55.548 192.981-38.569 296.548-52.824 106.249-14.624 208.548-113.643 317.098-31.638 125.109 94.517 6.28 256.43 120.16 361.972C1009.79-143.873 1314.2-204.588 1385.03-46.72c63.41 141.344-226.4 98.71-357.08 131.899-65.144 16.546-144.043-.29-211.614 12.531-75.34 14.296-121.3 65.646-203.829 66.297-148.254 1.168-314.517 46.576-456.579-61.091C22.022 1.43 24.029-160.69 19.335-285.552c-4.162-110.725 32.89-207.628 111.837-270.043Z" stroke="#581C87"/><path clip-rule="evenodd" d="M140.161-568.176C210.422-623.724 333.142-606.745 436.71-621c106.249-14.624 208.548-113.643 317.097-31.638 125.11 94.517 6.28 256.43 120.16 361.972 144.813 134.212 449.223 73.497 520.053 231.365 63.41 141.344-226.4 98.71-357.08 131.899-65.144 16.546-144.043-.29-211.615 12.532-75.339 14.295-121.299 65.645-203.828 66.296-148.255 1.168-314.518 46.576-456.58-61.091C31.011-11.151 33.019-173.271 28.325-298.133c-4.163-110.725 32.89-207.628 111.836-270.043Z" stroke="#581C87"/></svg>